<svg xmlns="http://www.w3.org/2000/svg" xmlns:xlink="http://www.w3.org/1999/xlink" width="500" zoomAndPan="magnify" viewBox="0 0 375 374.999991" height="500" preserveAspectRatio="xMidYMid meet" version="1.0"><defs><g/></defs><g fill="#f6821f" fill-opacity="1"><g transform="translate(-11.247034, 322.366743)"><g><path d="M 70.5625 2.328125 C 47.820312 2.328125 31.394531 -3.304688 21.28125 -14.578125 C 11.175781 -25.847656 6.125 -44.023438 6.125 -69.109375 L 6.125 -93.59375 L 55.40625 -93.59375 L 55.40625 -62.390625 C 55.40625 -49.953125 59.390625 -43.734375 67.359375 -43.734375 C 71.828125 -43.734375 74.9375 -45.046875 76.6875 -47.671875 C 78.4375 -50.296875 79.3125 -54.71875 79.3125 -60.9375 C 79.3125 -69.101562 78.335938 -75.859375 76.390625 -81.203125 C 74.453125 -86.546875 71.972656 -91.015625 68.953125 -94.609375 C 65.941406 -98.210938 60.550781 -103.804688 52.78125 -111.390625 L 31.203125 -132.953125 C 14.484375 -149.285156 6.125 -167.363281 6.125 -187.1875 C 6.125 -208.570312 11.03125 -224.851562 20.84375 -236.03125 C 30.664062 -247.207031 45.003906 -252.796875 63.859375 -252.796875 C 86.398438 -252.796875 102.628906 -246.816406 112.546875 -234.859375 C 122.460938 -222.910156 127.421875 -204.203125 127.421875 -178.734375 L 76.390625 -178.734375 L 76.109375 -195.9375 C 76.109375 -199.238281 75.179688 -201.863281 73.328125 -203.8125 C 71.484375 -205.757812 68.910156 -206.734375 65.609375 -206.734375 C 61.722656 -206.734375 58.804688 -205.660156 56.859375 -203.515625 C 54.910156 -201.378906 53.9375 -198.46875 53.9375 -194.78125 C 53.9375 -186.613281 58.601562 -178.15625 67.9375 -169.40625 L 97.09375 -141.421875 C 103.894531 -134.804688 109.53125 -128.535156 114 -122.609375 C 118.476562 -116.679688 122.078125 -109.679688 124.796875 -101.609375 C 127.515625 -93.546875 128.875 -83.972656 128.875 -72.890625 C 128.875 -48.203125 124.351562 -29.492188 115.3125 -16.765625 C 106.28125 -4.035156 91.363281 2.328125 70.5625 2.328125 Z M 70.5625 2.328125 "/></g></g></g><g fill="#f6821f" fill-opacity="1"><g transform="translate(174.09786, 322.366743)"><g><path d="M 30.609375 0 L 3.796875 -250.46875 L 52.78125 -250.46875 L 66.765625 -92.4375 L 80.765625 -250.46875 L 127.421875 -250.46875 L 140.828125 -92.4375 L 154.25 -250.46875 L 203.8125 -250.46875 L 176.40625 0 L 116.34375 0 L 103.796875 -120.71875 L 91.84375 0 Z M 30.609375 0 "/></g></g></g><g fill="#f6821f" fill-opacity="1"><g transform="translate(40.406095, 333.466094)"><g><path d="M 12.25 41.546875 L 122.015625 -334.125 L 158.3125 -334.125 L 48.546875 41.546875 Z M 12.25 41.546875 "/></g></g></g><g fill="#f6821f" fill-opacity="1"><g transform="translate(93.274129, 333.466094)"><g><path d="M 12.25 41.546875 L 122.015625 -334.125 L 158.3125 -334.125 L 48.546875 41.546875 Z M 12.25 41.546875 "/></g></g></g></svg>