<?xml version="1.0" encoding="UTF-8" standalone="no"?>
<svg
   width="454.24966"
   zoomAndPan="magnify"
   viewBox="0 0 340.68725 419.36933"
   height="559.15912"
   preserveAspectRatio="xMidYMid"
   version="1.0"
   id="svg87"
   sodipodi:docname="footerimg.svg"
   xmlns:inkscape="http://www.inkscape.org/namespaces/inkscape"
   xmlns:sodipodi="http://sodipodi.sourceforge.net/DTD/sodipodi-0.dtd"
   xmlns="http://www.w3.org/2000/svg"
   xmlns:svg="http://www.w3.org/2000/svg">
  <sodipodi:namedview
     id="namedview89"
     pagecolor="#505050"
     bordercolor="#eeeeee"
     borderopacity="1"
     inkscape:showpageshadow="0"
     inkscape:pageopacity="0"
     inkscape:pagecheckerboard="0"
     inkscape:deskcolor="#505050"
     showgrid="false" />
  <defs
     id="defs7">
    <clipPath
       id="e36e2ec71d">
      <path
         d="M 546.05469,449.51953 H 868 v 3.4375 H 546.05469 Z m 318.53906,3.4375 H 868 v 129 h -3.40625 z m -318.53906,0 h 3.4375 v 129 h -3.4375 z m 0,129 H 868 v 3.50781 H 546.05469 Z m 0,0"
         clip-rule="nonzero"
         id="path4" />
    </clipPath>
  </defs>
  <g
     clip-path="url(#e36e2ec71d)"
     id="g11"
     transform="translate(-544.37231,-166.09551)">
    <path
       fill="#181818"
       d="m 546.05469,449.51953 h 105.86569 l 3.23835,59.15991 26.68261,-59.15991 H 867.86328 V 585.46484 H 546.05469 Z"
       fill-opacity="1"
       fill-rule="nonzero"
       id="path9"
       sodipodi:nodetypes="cccccccc" />
  </g>
  <g
     fill="#181818"
     fill-opacity="1"
     id="g19"
     transform="translate(-544.37231,-166.09551)">
    <g
       transform="translate(565.64082,546.42592)"
       id="g17">
      <g
         id="g15">
        <path
           d="M 50.550781,-40.496094 40.15625,-7.222656 30.304688,-40.496094 H 24.230469 L 14.511719,-7.289062 4.183594,-40.496094 H -0.40625 L 12.285156,0 h 4.585938 L 27.265625,-35.90625 37.863281,0 h 4.519531 l 12.621094,-40.496094 z m 0,0"
           id="path13" />
      </g>
    </g>
  </g>
  <g
     fill="#181818"
     fill-opacity="1"
     id="g27"
     transform="translate(-544.37231,-166.09551)">
    <g
       transform="translate(626.93163,546.42592)"
       id="g25">
      <g
         id="g23">
        <path
           d="m 27.402344,-36.308594 v -4.1875 H 5.265625 V 0 H 27.402344 V -4.183594 H 9.582031 V -18.15625 h 15.523438 v -4.183594 H 9.582031 v -13.96875 z m 0,0"
           id="path21" />
      </g>
    </g>
  </g>
  <g
     fill="#181818"
     fill-opacity="1"
     id="g35"
     transform="translate(-544.37231,-166.09551)">
    <g
       transform="translate(665.07499,546.42592)"
       id="g33">
      <g
         id="g31">
        <path
           d="m 24.902344,-20.515625 c 3.578125,-1.621094 5.941406,-4.859375 5.941406,-9.179687 0,-6.34375 -4.996094,-10.800782 -11.203125,-10.800782 H 4.925781 V 0 H 21.058594 C 27.199219,0 32.125,-4.386719 32.125,-10.664062 c 0,-4.925782 -2.96875,-8.4375 -7.222656,-9.851563 z m 1.621094,-8.84375 c 0,3.984375 -3.308594,7.019531 -7.355469,7.019531 H 9.179688 v -13.835937 h 9.988281 c 4.046875,0 7.355469,2.835937 7.355469,6.816406 z M 20.515625,-4.320312 H 9.179688 V -18.15625 h 11.335937 c 3.984375,0 7.289063,3.039062 7.289063,7.019531 0,3.984375 -3.304688,6.816407 -7.289063,6.816407 z m 0,0"
           id="path29" />
      </g>
    </g>
  </g>
  <g
     fill="#181818"
     fill-opacity="1"
     id="g49"
     transform="translate(-544.37231,-166.09551)">
    <g
       transform="translate(730.0242,546.42592)"
       id="g47">
      <g
         id="g45">
        <path
           d="m 4.925781,0 h 11.070313 c 11.136718,0 20.246094,-9.042969 20.246094,-20.246094 0,-11.203125 -9.109376,-20.25 -20.246094,-20.25 H 4.925781 Z m 4.253907,-4.320312 v -31.855469 h 6.75 c 8.972656,0 15.992187,6.816406 15.992187,15.929687 0,9.109375 -7.019531,15.925782 -15.992187,15.925782 z m 0,0"
           id="path43" />
      </g>
    </g>
  </g>
  <g
     fill="#181818"
     fill-opacity="1"
     id="g57"
     transform="translate(-544.37231,-166.09551)">
    <g
       transform="translate(776.2658,546.42592)"
       id="g55">
      <g
         id="g53">
        <path
           d="m 27.402344,-36.308594 v -4.1875 H 5.265625 V 0 H 27.402344 V -4.183594 H 9.582031 V -18.15625 h 15.523438 v -4.183594 H 9.582031 v -13.96875 z m 0,0"
           id="path51" />
      </g>
    </g>
  </g>
  <g
     fill="#181818"
     fill-opacity="1"
     id="g65"
     transform="translate(-544.37231,-166.09551)">
    <g
       transform="translate(814.40916,546.42592)"
       id="g63">
      <g
         id="g61">
        <path
           d="M 29.359375,-40.496094 17.074219,-5.535156 4.792969,-40.496094 H 0 L 14.644531,0 H 19.4375 l 14.644531,-40.496094 z m 0,0"
           id="path59" />
      </g>
    </g>
  </g>
  <g
     fill="#181818"
     fill-opacity="1"
     id="g73"
     transform="translate(-544.37231,-166.09551)">
    <g
       transform="translate(539.34106,431.13412)"
       id="g71">
      <g
         id="g69">
        <path
           d="M 58.0625,1.921875 C 39.351562,1.921875 25.835938,-2.71875 17.515625,-12 9.191406,-21.28125 5.03125,-36.238281 5.03125,-56.875 v -20.15625 h 40.5625 v 25.6875 c 0,10.230469 3.273438,15.34375 9.828125,15.34375 3.6875,0 6.25,-1.078125 7.6875,-3.234375 1.4375,-2.15625 2.15625,-5.796875 2.15625,-10.921875 0,-6.71875 -0.804687,-12.273438 -2.40625,-16.671875 -1.59375,-4.394531 -3.632813,-8.070313 -6.109375,-11.03125 -2.480469,-2.957031 -6.917969,-7.554687 -13.3125,-13.796875 L 25.671875,-109.42188 C 11.910156,-122.85938 5.03125,-137.73437 5.03125,-154.04687 c 0,-17.59375 4.039062,-30.98829 12.125,-40.1875 8.082031,-9.20704 19.878906,-13.8125 35.390625,-13.8125 18.5625,0 31.921875,4.92187 40.078125,14.76562 8.15625,9.83594 12.23438,25.23047 12.23438,46.1875 H 62.875 L 62.625,-161.25 c 0,-2.71875 -0.761719,-4.875 -2.28125,-6.46875 -1.523438,-1.60156 -3.640625,-2.40625 -6.359375,-2.40625 -3.199219,0 -5.601563,0.88281 -7.203125,2.64063 -1.59375,1.76171 -2.390625,4.16406 -2.390625,7.20312 0,6.71875 3.835937,13.67969 11.515625,20.875 l 24,23.03125 c 5.59375,5.4375 10.226562,10.60156 13.90625,15.48437 3.6875,4.875005 6.64844,10.632818 8.89063,17.26563 2.23828,6.636719 3.35937,14.515625 3.35937,23.640625 0,20.3125 -3.71875,35.710937 -11.15625,46.1875 C 87.46875,-3.316406 75.1875,1.921875 58.0625,1.921875 Z m 0,0"
           id="path67" />
      </g>
    </g>
  </g>
  <path
     stroke-linecap="butt"
     fill="none"
     stroke-linejoin="miter"
     d="M 196.48316,265.03733 182.09339,130.76256 203.08636,58.947475 h 11.61555 L 226.24488,188.99826 237.78394,58.947475 h 38.3711 L 287.17067,188.99826 298.24098,58.947475 h 40.77344 L 316.45973,265.03733 h -49.44141 l -10.3125,-99.35548 -9.83984,99.35548 z"
     stroke="#181818"
     stroke-width="2.9996"
     stroke-opacity="1"
     stroke-miterlimit="4"
     id="path75"
     sodipodi:nodetypes="ccccccccccccccc" />
  <g
     fill="#181818"
     fill-opacity="1"
     id="g83"
     transform="translate(-544.37231,-166.09551)">
    <g
       transform="translate(590.39986,442.38264)"
       id="g81">
      <g
         id="g79">
        <path
           d="m 10.078125,34.1875 90.328125,-309.15625 h 29.875 L 39.953125,34.1875 Z m 0,0"
           id="path77" />
      </g>
    </g>
  </g>
  <path
     stroke-linecap="butt"
     fill="none"
     stroke-linejoin="miter"
     d="M 99.510509,310.46703 189.83864,1.3498148 h 29.875 L 129.38551,310.46703 Z m 0,0"
     stroke="#181818"
     stroke-width="2.69962"
     stroke-opacity="1"
     stroke-miterlimit="4"
     id="path85" />
</svg>
