<?xml version="1.0" encoding="UTF-8" standalone="no"?>
<svg
   width="1537.9805"
   zoomAndPan="magnify"
   viewBox="0 0 1153.4854 420.34419"
   height="560.45892"
   preserveAspectRatio="xMidYMid"
   version="1.0"
   id="svg368"
   xmlns="http://www.w3.org/2000/svg"
   xmlns:svg="http://www.w3.org/2000/svg">
  <defs
     id="defs208">
    <clipPath
       id="b450882eec">
      <path
         d="M 138.79687,421.78906 H 1290.3398 v 3.44531 H 138.79687 Z m 1148.02343,3.44531 h 3.5195 v 129.26172 h -3.5195 z m -1148.02343,0 h 3.44141 v 129.26172 h -3.44141 z m 0,129.26172 H 1290.3398 v 3.51953 H 138.79687 Z m 0,0"
         clip-rule="nonzero"
         id="path205" />
    </clipPath>
  </defs>
  <g
     clip-path="url(#b450882eec)"
     id="g212"
     transform="translate(-138.79687,-137.67143)">
    <path
       fill="#181818"
       d="m 138.79687,421.78906 h 549.19219 l 4.49747,48.25487 25.43127,-48.25487 h 572.3986 V 558.01563 H 138.79687 Z"
       fill-opacity="1"
       fill-rule="nonzero"
       id="path210" />
  </g>
  <g
     fill="#181818"
     fill-opacity="1"
     id="g220"
     transform="translate(-138.79687,-137.67143)">
    <g
       transform="translate(191.8434,507.93601)"
       id="g218">
      <g
         id="g216">
        <path
           d="m 50.652344,-40.578125 -10.414063,33.34375 -9.871093,-33.34375 H 24.277344 L 14.539062,-7.304688 4.191406,-40.578125 H -0.40625 L 12.308594,0 H 16.90625 L 27.320312,-35.980469 37.941406,0 h 4.53125 l 12.644532,-40.578125 z m 0,0"
           id="path214" />
      </g>
    </g>
  </g>
  <g
     fill="#181818"
     fill-opacity="1"
     id="g228"
     transform="translate(-138.79687,-137.67143)">
    <g
       transform="translate(282.64325,507.93601)"
       id="g226">
      <g
         id="g224">
        <path
           d="m 27.457031,-36.382812 v -4.195313 H 5.273438 V 0 H 27.457031 V -4.191406 H 9.601562 v -14 H 25.15625 v -4.195313 H 9.601562 v -13.996093 z m 0,0"
           id="path222" />
      </g>
    </g>
  </g>
  <g
     fill="#181818"
     fill-opacity="1"
     id="g236"
     transform="translate(-138.79687,-137.67143)">
    <g
       transform="translate(350.24616,507.93601)"
       id="g234">
      <g
         id="g232">
        <path
           d="m 24.957031,-20.558594 c 3.582031,-1.625 5.949219,-4.871094 5.949219,-9.199218 0,-6.355469 -5.003906,-10.820313 -11.226562,-10.820313 H 4.9375 V 0 h 16.164062 c 6.152344,0 11.089844,-4.394531 11.089844,-10.683594 0,-4.9375 -2.976562,-8.457031 -7.234375,-9.875 z m 1.621094,-8.859375 c 0,3.988281 -3.3125,7.03125 -7.371094,7.03125 H 9.199219 V -36.25 h 10.007812 c 4.058594,0 7.371094,2.839844 7.371094,6.832031 z M 20.558594,-4.328125 H 9.199219 v -13.863281 h 11.359375 c 3.992187,0 7.304687,3.042968 7.304687,7.03125 0,3.992187 -3.3125,6.832031 -7.304687,6.832031 z m 0,0"
           id="path230" />
      </g>
    </g>
  </g>
  <g
     fill="#181818"
     fill-opacity="1"
     id="g250"
     transform="translate(-138.79687,-137.67143)">
    <g
       transform="translate(474.0902,507.93601)"
       id="g248">
      <g
         id="g246">
        <path
           d="m 4.9375,0 h 11.089844 c 11.160156,0 20.289062,-9.0625 20.289062,-20.289062 0,-11.226563 -9.128906,-20.289063 -20.289062,-20.289063 H 4.9375 Z M 9.199219,-4.328125 V -36.25 h 6.761719 c 8.996093,0 16.027343,6.832031 16.027343,15.960938 0,9.128906 -7.03125,15.960937 -16.027343,15.960937 z m 0,0"
           id="path244" />
      </g>
    </g>
  </g>
  <g
     fill="#181818"
     fill-opacity="1"
     id="g258"
     transform="translate(-138.79687,-137.67143)">
    <g
       transform="translate(549.80862,507.93601)"
       id="g256">
      <g
         id="g254">
        <path
           d="m 27.457031,-36.382812 v -4.195313 H 5.273438 V 0 H 27.457031 V -4.191406 H 9.601562 v -14 H 25.15625 v -4.195313 H 9.601562 v -13.996093 z m 0,0"
           id="path252" />
      </g>
    </g>
  </g>
  <g
     fill="#181818"
     fill-opacity="1"
     id="g266"
     transform="translate(-138.79687,-137.67143)">
    <g
       transform="translate(617.41154,507.93601)"
       id="g264">
      <g
         id="g262">
        <path
           d="M 29.417969,-40.578125 17.109375,-5.546875 4.800781,-40.578125 H 0 L 14.675781,0 h 4.800781 l 14.675782,-40.578125 z m 0,0"
           id="path260" />
      </g>
    </g>
  </g>
  <g
     fill="#181818"
     fill-opacity="1"
     id="g274"
     transform="translate(-138.79687,-137.67143)">
    <g
       transform="translate(687.65202,507.93601)"
       id="g272">
      <g
         id="g270">
        <path
           d="m 27.457031,-36.382812 v -4.195313 H 5.273438 V 0 H 27.457031 V -4.191406 H 9.601562 v -14 H 25.15625 v -4.195313 H 9.601562 v -13.996093 z m 0,0"
           id="path268" />
      </g>
    </g>
  </g>
  <g
     fill="#181818"
     fill-opacity="1"
     id="g282"
     transform="translate(-138.79687,-137.67143)">
    <g
       transform="translate(755.25494,507.93601)"
       id="g280">
      <g
         id="g278">
        <path
           d="m 9.265625,-4.328125 v -36.25 H 4.9375 V 0 h 19.410156 v -4.328125 z m 0,0"
           id="path276" />
      </g>
    </g>
  </g>
  <g
     fill="#181818"
     fill-opacity="1"
     id="g290"
     transform="translate(-138.79687,-137.67143)">
    <g
       transform="translate(816.29772,507.93601)"
       id="g288">
      <g
         id="g286">
        <path
           d="m 24.144531,0.542969 c 11.5625,0 20.828125,-9.335938 20.828125,-20.832031 0,-11.496094 -9.265625,-20.828126 -20.828125,-20.828126 -11.496093,0 -20.832031,9.332032 -20.832031,20.828126 0,11.496093 9.335938,20.832031 20.832031,20.832031 z m 0,-4.332031 c -9.132812,0 -16.503906,-7.300782 -16.503906,-16.5 0,-9.195313 7.371094,-16.5 16.503906,-16.5 9.195313,0 16.5,7.304687 16.5,16.5 0,9.199218 -7.304687,16.5 -16.5,16.5 z m 0,0"
           id="path284" />
      </g>
    </g>
  </g>
  <g
     fill="#181818"
     fill-opacity="1"
     id="g298"
     transform="translate(-138.79687,-137.67143)">
    <g
       transform="translate(900.74043,507.93601)"
       id="g296">
      <g
         id="g294">
        <path
           d="M 19.476562,-40.578125 H 4.9375 V 0 h 4.328125 v -18.058594 h 10.210937 c 6.289063,0 11.292969,-4.933594 11.292969,-11.226562 0,-6.21875 -5.003906,-11.292969 -11.292969,-11.292969 z m -0.40625,18.394531 H 9.265625 v -14.199218 h 9.804687 c 4.058594,0 7.371094,2.839843 7.371094,7.167968 0,4.460938 -3.3125,7.03125 -7.371094,7.03125 z m 0,0"
           id="path292" />
      </g>
    </g>
  </g>
  <g
     fill="#181818"
     fill-opacity="1"
     id="g306"
     transform="translate(-138.79687,-137.67143)">
    <g
       transform="translate(968.74911,507.93601)"
       id="g304">
      <g
         id="g302">
        <path
           d="M 40.710938,-40.578125 25.089844,-5.207031 9.535156,-40.578125 H 4.9375 V 0 H 9.265625 V -32.054688 L 23.265625,0 h 3.582031 L 40.984375,-31.921875 V 0 h 4.257813 v -40.578125 z m 0,0"
           id="path300" />
      </g>
    </g>
  </g>
  <g
     fill="#181818"
     fill-opacity="1"
     id="g314"
     transform="translate(-138.79687,-137.67143)">
    <g
       transform="translate(1055.0178,507.93601)"
       id="g312">
      <g
         id="g310">
        <path
           d="m 27.457031,-36.382812 v -4.195313 H 5.273438 V 0 H 27.457031 V -4.191406 H 9.601562 v -14 H 25.15625 v -4.195313 H 9.601562 v -13.996093 z m 0,0"
           id="path308" />
      </g>
    </g>
  </g>
  <g
     fill="#181818"
     fill-opacity="1"
     id="g322"
     transform="translate(-138.79687,-137.67143)">
    <g
       transform="translate(1122.6207,507.93601)"
       id="g320">
      <g
         id="g318">
        <path
           d="m 34.085938,-40.578125 v 33.34375 L 8.996094,-40.578125 H 4.9375 V 0 H 9.265625 V -33.339844 L 34.289062,0 h 4.058594 v -40.578125 z m 0,0"
           id="path316" />
      </g>
    </g>
  </g>
  <g
     fill="#181818"
     fill-opacity="1"
     id="g330"
     transform="translate(-138.79687,-137.67143)">
    <g
       transform="translate(1201.9912,507.93601)"
       id="g328">
      <g
         id="g326">
        <path
           d="M 27.390625,-40.578125 H 0.609375 V -36.25 H 11.835938 V 0 h 4.328124 v -36.25 h 11.226563 z m 0,0"
           id="path324" />
      </g>
    </g>
  </g>
  <g
     fill="#181818"
     fill-opacity="1"
     id="g338"
     transform="translate(-138.79687,-137.67143)">
    <g
       transform="translate(267.27627,403.36584)"
       id="g336">
      <g
         id="g334">
        <path
           d="m 58.1875,1.921875 c -18.75,0 -32.296875,-4.644531 -40.640625,-13.9375 -8.335937,-9.300781 -12.5,-24.289063 -12.5,-44.96875 V -77.1875 H 45.6875 v 25.734375 c 0,10.261719 3.285156,15.390625 9.859375,15.390625 3.6875,0 6.25,-1.082031 7.6875,-3.25 1.445313,-2.164062 2.171875,-5.8125 2.171875,-10.9375 0,-6.726562 -0.804688,-12.296875 -2.40625,-16.703125 -1.605469,-4.414063 -3.652344,-8.101563 -6.140625,-11.0625 -2.480469,-2.96875 -6.929687,-7.578125 -13.34375,-13.828125 l -17.78125,-17.79688 c -13.792969,-13.46875 -20.6875,-28.37499 -20.6875,-44.71874 0,-17.63282 4.046875,-31.05469 12.140625,-40.26563 8.09375,-9.21875 19.914062,-13.82812 35.46875,-13.82812 18.59375,0 31.976562,4.92968 40.15625,14.78125 8.17578,9.85546 12.26563,25.28125 12.26563,46.28125 H 63 l -0.25,-14.1875 c 0,-2.71875 -0.761719,-4.87891 -2.28125,-6.48438 -1.523438,-1.60156 -3.648438,-2.40625 -6.375,-2.40625 -3.199219,0 -5.601562,0.88281 -7.203125,2.64063 -1.605469,1.76171 -2.40625,4.16796 -2.40625,7.21875 0,6.73046 3.84375,13.70312 11.53125,20.92187 l 24.046875,23.07812 c 5.613281,5.44922 10.265625,10.6211 13.953125,15.51563 3.6875,4.886719 6.648435,10.65625 8.890625,17.3125 2.23828,6.648438 3.35938,14.539062 3.35938,23.671875 0,20.355469 -3.73047,35.78125 -11.187505,46.28125 -7.449219,10.5 -19.746094,15.75 -36.890625,15.75 z m 0,0"
           id="path332" />
      </g>
    </g>
  </g>
  <g
     fill="#181818"
     fill-opacity="1"
     id="g346"
     transform="translate(-138.79687,-137.67143)">
    <g
       transform="translate(384.12841,403.36584)"
       id="g344">
      <g
         id="g342">
        <path
           d="M 3.609375,0 23.5625,-206.53125 H 93.53125 L 113.25,0 H 74.0625 L 71.171875,-33.421875 H 46.15625 L 43.765625,0 Z m 45.6875,-66.359375 h 18.75 L 58.90625,-171.4375 h -1.921875 z m 0,0"
           id="path340" />
      </g>
    </g>
  </g>
  <g
     fill="#181818"
     fill-opacity="1"
     id="g354"
     transform="translate(-138.79687,-137.67143)">
    <g
       transform="translate(506.75101,403.36584)"
       id="g352">
      <g
         id="g350">
        <path
           d="M 9.140625,0 V -206.53125 H 72.125 L 89.4375,-80.546875 106.75,-206.53125 h 63.48437 V 0 h -37.75 V -148.82812 L 108.67188,0 H 71.65625 l -25.25,-148.82812 V 0 Z m 0,0"
           id="path348" />
      </g>
    </g>
  </g>
  <path
     stroke-linecap="butt"
     fill="none"
     stroke-linejoin="miter"
     d="M 646.42579,265.69578 629.835,110.95204 l 15.2922,-51.868483 19.5525,0.0966 11.56641,130.320323 11.56249,-130.320323 h 38.44923 L 737.29689,189.50048 748.39064,59.180157 h 40.85548 L 766.64455,265.6958 h -49.54297 l -10.33203,-99.5586 -9.86329,99.5586 z m 155.53908,0 19.95703,-206.515643 h 69.97263 l 19.7266,206.515643 h -39.1563 l -2.9336,-33.40235 h -25.00777 l -2.40625,33.40235 z m 45.72656,-66.33594 h 18.7266 L 857.32034,94.285607 h -1.9375 z m 82.4727,-140.179703 h 63.457 c 10.09767,0 17.90227,2.28906 23.42187,6.86718 5.5586,4.53907 9.293,10.93751 11.2109,19.19532 1.918,8.25781 2.8789,18.804693 2.8789,31.640633 0,11.70312 -1.5273,20.83985 -4.582,27.41406 -3.0508,6.53516 -8.332,11.09375 -15.8477,13.67969 6.2618,1.28906 10.7813,4.42188 13.5586,9.39063 2.8203,4.97266 4.2266,11.70313 4.2266,20.19531 l -0.4688,78.13282 h -40.38667 v -80.77735 c 0,-5.78906 -1.1328,-9.48828 -3.4062,-11.09375 -2.2305,-1.60547 -6.3203,-2.40625 -12.2657,-2.40625 v 94.27735 h -41.7968 z m 51.8906,76.429693 c 5.793,0 8.6914,-6.24219 8.6914,-18.72656 0,-5.47657 -0.2578,-9.56641 -0.7656,-12.26953 -0.4688,-2.73829 -1.3477,-4.617193 -2.6406,-5.632823 -1.254,-1.05859 -3.0938,-1.58594 -5.5196,-1.58594 h -9.625 v 38.214853 z m 68.80857,-76.429693 h 63.457 c 10.0977,0 17.9024,2.28906 23.4219,6.86718 5.5586,4.53907 9.293,10.93751 11.211,19.19532 1.9179,8.25781 2.8789,18.804693 2.8789,31.640633 0,11.70312 -1.5274,20.83985 -4.5821,27.41406 -3.0508,6.53516 -8.3359,11.09375 -15.8476,13.67969 6.2617,1.28906 10.7812,4.42188 13.5586,9.39063 2.8203,4.97266 4.2265,11.70313 4.2265,20.19531 l -0.4687,78.13282 h -40.3867 v -80.77735 c 0,-5.78906 -1.1368,-9.48828 -3.4063,-11.09375 -2.2305,-1.60547 -6.3203,-2.40625 -12.2656,-2.40625 v 94.27735 h -41.7969 z m 51.8906,76.429693 c 5.793,0 8.6875,-6.24219 8.6875,-18.72656 0,-5.47657 -0.2538,-9.56641 -0.7617,-12.26953 -0.4688,-2.73829 -1.3515,-4.617193 -2.6406,-5.632823 -1.2539,-1.05859 -3.0938,-1.58594 -5.5195,-1.58594 h -9.625 v 38.214853 z"
     stroke="#181818"
     stroke-width="3.30631"
     stroke-opacity="1"
     stroke-miterlimit="4"
     id="path356" />
  <g
     fill="#181818"
     fill-opacity="1"
     id="g364"
     transform="translate(-138.79687,-137.67143)">
    <g
       transform="translate(626.43391,414.63737)"
       id="g362">
      <g
         id="g360">
        <path
           d="M 10.09375,34.265625 100.625,-275.53125 h 29.92187 L 40.03125,34.265625 Z m 0,0"
           id="path358" />
      </g>
    </g>
  </g>
  <path
     stroke-linecap="butt"
     fill="none"
     stroke-linejoin="miter"
     d="M 541.22656,311.21533 631.7422,1.4652972 h 29.93359 L 571.16407,311.21533 Z m 0,0"
     stroke="#181818"
     stroke-width="2.93057"
     stroke-opacity="1"
     stroke-miterlimit="4"
     id="path366" />
</svg>
