<svg version="1.2" xmlns="http://www.w3.org/2000/svg" viewBox="0 0 2000 2000" width="2000" height="2000">
	<title>AdobeStock_271896642</title>
	<style>
		.s0 { fill: #ebecec } 
		.s1 { fill: #000000 } 
	</style>
	<g id="_Artboards_">
	</g>
	<g id="321353356351 1">
		<g id="&lt;Group&gt;">
			<path id="&lt;Path&gt;" class="s0" d="m0 2000h2000v-2000h-2000z"/>
			<path id="&lt;Compound Path&gt;" fill-rule="evenodd" class="s1" d="m1392 1438.4h-784c-7.2 0-13-5.9-13-13.1v-65.3c0-7.2 5.8-13.1 13-13.1h346.3v-235.2h-85c-7.2 0-13-5.8-13-13.1v-130.6c0-7.2 5.8-13.1 13-13.1h19.6v-40.5h-19.6c-7.2 0-13-5.8-13-13v-183h-117.6c-7.2 0-13.1-5.8-13.1-13v-130.7c0-7.2 5.9-13.1 13.1-13.1h522.6c7.2 0 13.1 5.9 13.1 13.1v130.7c0 7.2-5.9 13-13.1 13h-117.6v183c0 7.2-5.8 13-13 13h-19.6v40.5h19.6c7.2 0 13 5.9 13 13.1v130.6c0 7.3-5.8 13.1-13 13.1h-85v235.2h346.3c7.2 0 13 5.9 13 13.1v65.3c0 7.2-5.8 13.1-13 13.1zm-134.3-275.4c5.1-5.1 13.4-5.1 18.5 0 5.1 5.1 5.1 13.4 0 18.5l-135.5 135.4c-5.1 5.1-13.3 5.1-18.4 0-5.2-5.1-5.2-13.3 0-18.4zm-45.5-103.5c3.6-6.2 11.6-8.3 17.8-4.7 6.2 3.6 8.3 11.6 4.7 17.8l-139.5 241.6c-3.6 6.3-11.5 8.4-17.8 4.8-6.2-3.7-8.3-11.6-4.7-17.8zm-297.2-104.6h169.8v-40.5h-169.8zm135.2 130.6v-52.2c0-7.2 5.8-13.1 13-13.1 7.2 0 13.1 5.9 13.1 13.1v52.2h41.2v-104.5q-117.6 0-235.2 0v104.5h41.2v-52.2c0-7.2 5.9-13.1 13.1-13.1 7.2 0 13 5.9 13 13.1v52.2h37.2v-52.2c0-7.2 5.9-13.1 13.1-13.1 7.2 0 13.1 5.9 13.1 13.1v52.2zm-30.7 241.3l-20.1 20h20.1zm-39.2-194.4l20.7-20.7h-20.7zm39.2 127.6l-39.2 39.2v29.9l39.2-39.2zm0-63.6l-39.2 39.2v26.6l39.2-39.2zm-39.2 2.3l39.2-39.2v-29.2l-39.2 39.1zm137.2-480.2h-235.2v169.9q117.6 0 235.2 0zm130.7-130.7h-496.5v104.6q248.2 0 496.5 0zm-524.5 593.7c-5.1-5.1-5.1-13.4 0-18.5 5.1-5.1 13.4-5.1 18.5 0l135.5 135.5c5.1 5 5.1 13.3 0 18.4-5.1 5.1-13.4 5.1-18.5 0zm-102.7 230.8h757.8v-39.2q-378.9 0-757.8 0zm144.1-339.6c-3.7-6.3-1.5-14.2 4.7-17.9 6.2-3.6 14.2-1.5 17.8 4.8l139.5 241.6c3.6 6.2 1.5 14.2-4.7 17.8-6.2 3.6-14.2 1.5-17.8-4.7z"/>
		</g>
	</g>
</svg>